<?xml version="1.0" encoding="UTF-8" standalone="no"?>
<!DOCTYPE svg PUBLIC "-//W3C//DTD SVG 1.1//EN"
 "http://www.w3.org/Graphics/SVG/1.1/DTD/svg11.dtd">
<!-- Generated by graphviz version 2.38.0 (20140413.2041)
 -->
<!-- Title: %3 Pages: 1 -->
<svg width="1184pt" height="362pt"
 viewBox="0.00 0.00 1184.14 361.69" xmlns="http://www.w3.org/2000/svg" xmlns:xlink="http://www.w3.org/1999/xlink">
<g id="graph0" class="graph" transform="scale(1 1) rotate(0) translate(4 357.693)">
<title>%3</title>
<polygon fill="white" stroke="none" points="-4,4 -4,-357.693 1180.14,-357.693 1180.14,4 -4,4"/>
<!-- Assurances -->
<g id="node1" class="node"><title>Assurances</title>
<ellipse fill="none" stroke="black" cx="975.5" cy="-124.477" rx="55.3091" ry="37.4533"/>
<text text-anchor="middle" x="975.5" y="-135.777" font-family="Times,serif" font-size="14.00">Additional</text>
<text text-anchor="middle" x="975.5" y="-120.777" font-family="Times,serif" font-size="14.00">Legal</text>
<text text-anchor="middle" x="975.5" y="-105.777" font-family="Times,serif" font-size="14.00">Assurances</text>
</g>
<!-- Tidelift -->
<g id="node19" class="node"><title>Tidelift</title>
<g id="a_node19"><a xlink:href="https://tidelift.com" xlink:title="Tidelift">
<polygon fill="none" stroke="black" points="942,-36 885,-36 885,-0 942,-0 942,-36"/>
<text text-anchor="middle" x="913.5" y="-14.3" font-family="Times,serif" font-size="14.00">Tidelift</text>
</a>
</g>
</g>
<!-- Assurances&#45;&gt;Tidelift -->
<g id="edge27" class="edge"><title>Assurances&#45;&gt;Tidelift</title>
<path fill="none" stroke="black" d="M955.37,-89.5561C946.752,-75.0327 936.85,-58.3465 928.839,-44.8484"/>
<polygon fill="black" stroke="black" points="931.748,-42.8922 923.635,-36.0786 925.729,-46.4646 931.748,-42.8922"/>
</g>
<!-- Development -->
<g id="node2" class="node"><title>Development</title>
<ellipse fill="none" stroke="black" cx="1112.5" cy="-124.477" rx="63.7795" ry="26.7407"/>
<text text-anchor="middle" x="1112.5" y="-128.277" font-family="Times,serif" font-size="14.00">Further</text>
<text text-anchor="middle" x="1112.5" y="-113.277" font-family="Times,serif" font-size="14.00">Development</text>
</g>
<!-- BountySource -->
<g id="node9" class="node"><title>BountySource</title>
<g id="a_node9"><a xlink:href="https://bountysource.com" xlink:title="BountySource">
<polygon fill="none" stroke="black" points="1083.5,-36 989.5,-36 989.5,-0 1083.5,-0 1083.5,-36"/>
<text text-anchor="middle" x="1036.5" y="-14.3" font-family="Times,serif" font-size="14.00">BountySource</text>
</a>
</g>
</g>
<!-- Development&#45;&gt;BountySource -->
<g id="edge19" class="edge"><title>Development&#45;&gt;BountySource</title>
<path fill="none" stroke="black" d="M1094.3,-98.4519C1082.4,-82.1044 1066.92,-60.8238 1054.98,-44.4013"/>
<polygon fill="black" stroke="black" points="1057.8,-42.3359 1049.09,-36.3081 1052.14,-46.4537 1057.8,-42.3359"/>
</g>
<!-- GitCoin -->
<g id="node12" class="node"><title>GitCoin</title>
<g id="a_node12"><a xlink:href="https://gitcoin.co" xlink:title="GitCoin">
<polygon fill="none" stroke="black" points="1161.5,-36 1101.5,-36 1101.5,-0 1161.5,-0 1161.5,-36"/>
<text text-anchor="middle" x="1131.5" y="-14.3" font-family="Times,serif" font-size="14.00">GitCoin</text>
</a>
</g>
</g>
<!-- Development&#45;&gt;GitCoin -->
<g id="edge20" class="edge"><title>Development&#45;&gt;GitCoin</title>
<path fill="none" stroke="black" d="M1117.2,-97.651C1120.04,-82.0382 1123.65,-62.1538 1126.54,-46.2849"/>
<polygon fill="black" stroke="black" points="1130.05,-46.5071 1128.4,-36.0422 1123.17,-45.2546 1130.05,-46.5071"/>
</g>
<!-- GitStore -->
<g id="node13" class="node"><title>GitStore</title>
<g id="a_node13"><a xlink:href="https://gitstore.app" xlink:title="GitStore">
<polygon fill="none" stroke="black" points="790.5,-36 728.5,-36 728.5,-0 790.5,-0 790.5,-36"/>
<text text-anchor="middle" x="759.5" y="-14.3" font-family="Times,serif" font-size="14.00">GitStore</text>
</a>
</g>
</g>
<!-- Development&#45;&gt;GitStore -->
<g id="edge21" class="edge"><title>Development&#45;&gt;GitStore</title>
<path fill="none" stroke="black" d="M1074.95,-102.693C1063.77,-97.0625 1051.34,-91.3334 1039.5,-87 957.192,-56.8789 856.393,-36.1359 800.968,-26.0433"/>
<polygon fill="black" stroke="black" points="801.295,-22.5462 790.834,-24.2249 800.058,-29.4361 801.295,-22.5462"/>
</g>
<!-- Development&#45;&gt;Tidelift -->
<g id="edge22" class="edge"><title>Development&#45;&gt;Tidelift</title>
<path fill="none" stroke="black" d="M1078.7,-101.509C1055.93,-87.1458 1024.97,-68.4402 996.5,-54 982.221,-46.7586 966.089,-39.7117 951.87,-33.8617"/>
<polygon fill="black" stroke="black" points="952.96,-30.527 942.377,-30.0153 950.331,-37.0146 952.96,-30.527"/>
</g>
<!-- Donations -->
<g id="node3" class="node"><title>Donations</title>
<ellipse fill="none" stroke="black" cx="200.5" cy="-124.477" rx="50.8918" ry="18"/>
<text text-anchor="middle" x="200.5" y="-120.777" font-family="Times,serif" font-size="14.00">Donations?</text>
</g>
<!-- CommunityBridge -->
<g id="node11" class="node"><title>CommunityBridge</title>
<g id="a_node11"><a xlink:href="https://communitybridge.org" xlink:title="CommunityBridge">
<polygon fill="none" stroke="black" points="361,-36 242,-36 242,-0 361,-0 361,-36"/>
<text text-anchor="middle" x="301.5" y="-14.3" font-family="Times,serif" font-size="14.00">CommunityBridge</text>
</a>
</g>
</g>
<!-- Donations&#45;&gt;CommunityBridge -->
<g id="edge6" class="edge"><title>Donations&#45;&gt;CommunityBridge</title>
<path fill="none" stroke="black" d="M216.281,-107.152C232.738,-90.1287 258.73,-63.2426 277.684,-43.6355"/>
<polygon fill="black" stroke="black" points="280.388,-45.8746 284.822,-36.2522 275.355,-41.0092 280.388,-45.8746"/>
<text text-anchor="middle" x="277.5" y="-57.8" font-family="Times,serif" font-size="14.00">Yes</text>
</g>
<!-- LiberaPay -->
<g id="node15" class="node"><title>LiberaPay</title>
<g id="a_node15"><a xlink:href="https://liberapay.org" xlink:title="LiberaPay">
<polygon fill="none" stroke="black" points="451.5,-36 379.5,-36 379.5,-0 451.5,-0 451.5,-36"/>
<text text-anchor="middle" x="415.5" y="-14.3" font-family="Times,serif" font-size="14.00">LiberaPay</text>
</a>
</g>
</g>
<!-- Donations&#45;&gt;LiberaPay -->
<g id="edge7" class="edge"><title>Donations&#45;&gt;LiberaPay</title>
<path fill="none" stroke="black" d="M229.496,-109.386C265.91,-91.6916 328.747,-61.1564 371.198,-40.528"/>
<polygon fill="black" stroke="black" points="372.73,-43.6749 380.195,-36.1562 369.671,-37.3789 372.73,-43.6749"/>
<text text-anchor="middle" x="351.5" y="-57.8" font-family="Times,serif" font-size="14.00">Yes</text>
</g>
<!-- OpenCollective -->
<g id="node17" class="node"><title>OpenCollective</title>
<g id="a_node17"><a xlink:href="https://opencollective.com" xlink:title="OpenCollective">
<polygon fill="none" stroke="black" points="147,-36 46,-36 46,-0 147,-0 147,-36"/>
<text text-anchor="middle" x="96.5" y="-14.3" font-family="Times,serif" font-size="14.00">OpenCollective</text>
</a>
</g>
</g>
<!-- Donations&#45;&gt;OpenCollective -->
<g id="edge8" class="edge"><title>Donations&#45;&gt;OpenCollective</title>
<path fill="none" stroke="black" d="M184.25,-107.152C167.229,-90.0533 140.304,-63.0045 120.764,-43.3756"/>
<polygon fill="black" stroke="black" points="123.209,-40.8702 113.673,-36.2522 118.248,-45.8087 123.209,-40.8702"/>
<text text-anchor="middle" x="156.5" y="-57.8" font-family="Times,serif" font-size="14.00">Yes</text>
</g>
<!-- Patreon -->
<g id="node18" class="node"><title>Patreon</title>
<g id="a_node18"><a xlink:href="https://patreon.com" xlink:title="Patreon">
<polygon fill="none" stroke="black" points="223.5,-36 165.5,-36 165.5,-0 223.5,-0 223.5,-36"/>
<text text-anchor="middle" x="194.5" y="-14.3" font-family="Times,serif" font-size="14.00">Patreon</text>
</a>
</g>
</g>
<!-- Donations&#45;&gt;Patreon -->
<g id="edge9" class="edge"><title>Donations&#45;&gt;Patreon</title>
<path fill="none" stroke="black" d="M199.509,-106.224C198.576,-89.9669 197.161,-65.3422 196.073,-46.3983"/>
<polygon fill="black" stroke="black" points="199.56,-46.0607 195.492,-36.2778 192.571,-46.4621 199.56,-46.0607"/>
<text text-anchor="middle" x="208.5" y="-57.8" font-family="Times,serif" font-size="14.00">Yes</text>
</g>
<!-- Security -->
<g id="node4" class="node"><title>Security</title>
<ellipse fill="none" stroke="black" cx="844.5" cy="-124.477" rx="57.9655" ry="26.7407"/>
<text text-anchor="middle" x="844.5" y="-128.277" font-family="Times,serif" font-size="14.00">Security</text>
<text text-anchor="middle" x="844.5" y="-113.277" font-family="Times,serif" font-size="14.00">Information</text>
</g>
<!-- Security&#45;&gt;GitStore -->
<g id="edge23" class="edge"><title>Security&#45;&gt;GitStore</title>
<path fill="none" stroke="black" d="M824.571,-98.9815C811.2,-82.5463 793.629,-60.9496 780.117,-44.3411"/>
<polygon fill="black" stroke="black" points="782.491,-41.7126 773.465,-36.1644 777.061,-46.1303 782.491,-41.7126"/>
</g>
<!-- Security&#45;&gt;Tidelift -->
<g id="edge24" class="edge"><title>Security&#45;&gt;Tidelift</title>
<path fill="none" stroke="black" d="M861.027,-98.4519C871.725,-82.2544 885.621,-61.2138 896.425,-44.8545"/>
<polygon fill="black" stroke="black" points="899.479,-46.5813 902.069,-36.3081 893.638,-42.7236 899.479,-46.5813"/>
</g>
<!-- SellAds -->
<g id="node5" class="node"><title>SellAds</title>
<ellipse fill="none" stroke="black" cx="140.5" cy="-230.953" rx="100.182" ry="18"/>
<text text-anchor="middle" x="140.5" y="-227.253" font-family="Times,serif" font-size="14.00">Sell ads or sponsorships?</text>
</g>
<!-- SellAds&#45;&gt;Donations -->
<g id="edge5" class="edge"><title>SellAds&#45;&gt;Donations</title>
<path fill="none" stroke="black" d="M150.408,-212.701C160.019,-195.966 174.721,-170.365 185.716,-151.22"/>
<polygon fill="black" stroke="black" points="188.832,-152.823 190.777,-142.408 182.761,-149.337 188.832,-152.823"/>
<text text-anchor="middle" x="178" y="-183.753" font-family="Times,serif" font-size="14.00">No</text>
</g>
<!-- CodeFund -->
<g id="node10" class="node"><title>CodeFund</title>
<g id="a_node10"><a xlink:href="https://codefund.io" xlink:title="CodeFund">
<polygon fill="none" stroke="black" points="73,-142.477 0,-142.477 0,-106.477 73,-106.477 73,-142.477"/>
<text text-anchor="middle" x="36.5" y="-120.777" font-family="Times,serif" font-size="14.00">CodeFund</text>
</a>
</g>
</g>
<!-- SellAds&#45;&gt;CodeFund -->
<g id="edge3" class="edge"><title>SellAds&#45;&gt;CodeFund</title>
<path fill="none" stroke="black" d="M101.005,-214.3C91.2296,-209.154 81.3259,-202.717 73.5,-194.953 61.4777,-183.026 52.4247,-166.366 46.2834,-152.35"/>
<polygon fill="black" stroke="black" points="49.3633,-150.637 42.3254,-142.717 42.8886,-153.297 49.3633,-150.637"/>
<text text-anchor="middle" x="84.5" y="-183.753" font-family="Times,serif" font-size="14.00">Yes</text>
</g>
<!-- SellAds&#45;&gt;OpenCollective -->
<g id="edge4" class="edge"><title>SellAds&#45;&gt;OpenCollective</title>
<path fill="none" stroke="black" d="M134.12,-212.841C129.247,-199.219 122.679,-179.58 118.5,-161.953 109.1,-122.306 102.777,-75.4842 99.4075,-46.513"/>
<polygon fill="black" stroke="black" points="102.858,-45.8807 98.2604,-36.3357 95.9025,-46.6648 102.858,-45.8807"/>
<text text-anchor="middle" x="129.5" y="-120.777" font-family="Times,serif" font-size="14.00">Yes</text>
</g>
<!-- ShouldWithhold -->
<g id="node6" class="node"><title>ShouldWithhold</title>
<ellipse fill="none" stroke="black" cx="467.5" cy="-326.823" rx="68.6788" ry="26.7407"/>
<text text-anchor="middle" x="467.5" y="-330.623" font-family="Times,serif" font-size="14.00">Withhold stuff</text>
<text text-anchor="middle" x="467.5" y="-315.623" font-family="Times,serif" font-size="14.00">for money?</text>
</g>
<!-- ShouldWithhold&#45;&gt;SellAds -->
<g id="edge1" class="edge"><title>ShouldWithhold&#45;&gt;SellAds</title>
<path fill="none" stroke="black" d="M413.136,-310.217C354.645,-293.427 261.86,-266.791 201.07,-249.341"/>
<polygon fill="black" stroke="black" points="201.804,-245.91 191.227,-246.515 199.873,-252.639 201.804,-245.91"/>
<text text-anchor="middle" x="323" y="-270.753" font-family="Times,serif" font-size="14.00">No</text>
</g>
<!-- WithholdWhat -->
<g id="node8" class="node"><title>WithholdWhat</title>
<ellipse fill="none" stroke="black" cx="653.5" cy="-230.953" rx="67.6881" ry="18"/>
<text text-anchor="middle" x="653.5" y="-227.253" font-family="Times,serif" font-size="14.00">Withhold what?</text>
</g>
<!-- ShouldWithhold&#45;&gt;WithholdWhat -->
<g id="edge2" class="edge"><title>ShouldWithhold&#45;&gt;WithholdWhat</title>
<path fill="none" stroke="black" d="M508.318,-305.223C539.815,-289.328 583.118,-267.474 614.221,-251.777"/>
<polygon fill="black" stroke="black" points="616.105,-254.746 623.455,-247.116 612.951,-248.497 616.105,-254.746"/>
<text text-anchor="middle" x="594.5" y="-270.753" font-family="Times,serif" font-size="14.00">Yes</text>
</g>
<!-- Endorsement -->
<g id="node7" class="node"><title>Endorsement</title>
<ellipse fill="none" stroke="black" cx="387.5" cy="-124.477" rx="66.4361" ry="37.4533"/>
<text text-anchor="middle" x="387.5" y="-135.777" font-family="Times,serif" font-size="14.00">Endorsements</text>
<text text-anchor="middle" x="387.5" y="-120.777" font-family="Times,serif" font-size="14.00">Trademarks</text>
<text text-anchor="middle" x="387.5" y="-105.777" font-family="Times,serif" font-size="14.00">Certifications</text>
</g>
<!-- WithholdWhat&#45;&gt;Assurances -->
<g id="edge10" class="edge"><title>WithholdWhat&#45;&gt;Assurances</title>
<path fill="none" stroke="black" d="M707.438,-220.01C760.568,-209.233 843.427,-189.765 911.5,-161.953 916.334,-159.978 921.253,-157.706 926.109,-155.28"/>
<polygon fill="black" stroke="black" points="928.083,-158.198 935.327,-150.466 924.843,-151.993 928.083,-158.198"/>
</g>
<!-- WithholdWhat&#45;&gt;Development -->
<g id="edge11" class="edge"><title>WithholdWhat&#45;&gt;Development</title>
<path fill="none" stroke="black" d="M716.703,-224.477C794.298,-216.476 929.175,-198.395 1039.5,-161.953 1048.39,-159.016 1057.56,-155.164 1066.26,-151.066"/>
<polygon fill="black" stroke="black" points="1068.05,-154.089 1075.5,-146.553 1064.97,-147.8 1068.05,-154.089"/>
</g>
<!-- WithholdWhat&#45;&gt;Security -->
<g id="edge12" class="edge"><title>WithholdWhat&#45;&gt;Security</title>
<path fill="none" stroke="black" d="M681.683,-214.537C712.582,-197.636 762.61,-170.27 799.066,-150.329"/>
<polygon fill="black" stroke="black" points="800.929,-153.299 808.023,-145.43 797.57,-147.158 800.929,-153.299"/>
</g>
<!-- WithholdWhat&#45;&gt;Endorsement -->
<g id="edge13" class="edge"><title>WithholdWhat&#45;&gt;Endorsement</title>
<path fill="none" stroke="black" d="M612.261,-216.573C573.456,-203.658 513.934,-183.015 463.5,-161.953 457.739,-159.548 451.788,-156.931 445.87,-154.24"/>
<polygon fill="black" stroke="black" points="447.176,-150.988 436.63,-149.971 444.24,-157.342 447.176,-150.988"/>
</g>
<!-- License -->
<g id="node20" class="node"><title>License</title>
<ellipse fill="none" stroke="black" cx="510.5" cy="-124.477" rx="38.1938" ry="18"/>
<text text-anchor="middle" x="510.5" y="-120.777" font-family="Times,serif" font-size="14.00">License</text>
</g>
<!-- WithholdWhat&#45;&gt;License -->
<g id="edge14" class="edge"><title>WithholdWhat&#45;&gt;License</title>
<path fill="none" stroke="black" d="M630.719,-213.922C611.391,-200.255 582.984,-180.013 558.5,-161.953 551.748,-156.973 544.519,-151.536 537.773,-146.415"/>
<polygon fill="black" stroke="black" points="539.634,-143.433 529.559,-140.158 535.392,-149.002 539.634,-143.433"/>
</g>
<!-- Support -->
<g id="node21" class="node"><title>Support</title>
<ellipse fill="none" stroke="black" cx="730.5" cy="-124.477" rx="38.1938" ry="18"/>
<text text-anchor="middle" x="730.5" y="-120.777" font-family="Times,serif" font-size="14.00">Support</text>
</g>
<!-- WithholdWhat&#45;&gt;Support -->
<g id="edge15" class="edge"><title>WithholdWhat&#45;&gt;Support</title>
<path fill="none" stroke="black" d="M665.871,-213.167C678.462,-196.084 698.112,-169.422 712.441,-149.979"/>
<polygon fill="black" stroke="black" points="715.298,-152.003 718.413,-141.877 709.663,-147.85 715.298,-152.003"/>
</g>
<!-- Distribution -->
<g id="node22" class="node"><title>Distribution</title>
<ellipse fill="none" stroke="black" cx="620.5" cy="-124.477" rx="53.0913" ry="18"/>
<text text-anchor="middle" x="620.5" y="-120.777" font-family="Times,serif" font-size="14.00">Distribution</text>
</g>
<!-- WithholdWhat&#45;&gt;Distribution -->
<g id="edge16" class="edge"><title>WithholdWhat&#45;&gt;Distribution</title>
<path fill="none" stroke="black" d="M648.051,-212.701C642.837,-196.194 634.898,-171.061 628.88,-152.007"/>
<polygon fill="black" stroke="black" points="632.197,-150.889 625.848,-142.408 625.522,-152.998 632.197,-150.889"/>
</g>
<!-- ItchIO -->
<g id="node14" class="node"><title>ItchIO</title>
<g id="a_node14"><a xlink:href="https://itch.io" xlink:title="itch.io">
<polygon fill="none" stroke="black" points="632.5,-36 578.5,-36 578.5,-0 632.5,-0 632.5,-36"/>
<text text-anchor="middle" x="605.5" y="-14.3" font-family="Times,serif" font-size="14.00">itch.io</text>
</a>
</g>
</g>
<!-- LicenseZero -->
<g id="node16" class="node"><title>LicenseZero</title>
<g id="a_node16"><a xlink:href="https://licensezero.com" xlink:title="License Zero">
<polygon fill="none" stroke="black" points="557.5,-36 469.5,-36 469.5,-0 557.5,-0 557.5,-36"/>
<text text-anchor="middle" x="513.5" y="-14.3" font-family="Times,serif" font-size="14.00">License Zero</text>
</a>
</g>
</g>
<!-- License&#45;&gt;ItchIO -->
<g id="edge17" class="edge"><title>License&#45;&gt;ItchIO</title>
<path fill="none" stroke="black" d="M524.928,-107.609C540.417,-90.5756 565.218,-63.3002 583.217,-43.5061"/>
<polygon fill="black" stroke="black" points="585.849,-45.8137 589.987,-36.0604 580.67,-41.1044 585.849,-45.8137"/>
</g>
<!-- License&#45;&gt;LicenseZero -->
<g id="edge18" class="edge"><title>License&#45;&gt;LicenseZero</title>
<path fill="none" stroke="black" d="M510.995,-106.224C511.462,-89.9669 512.169,-65.3422 512.713,-46.3983"/>
<polygon fill="black" stroke="black" points="516.215,-46.3742 513.004,-36.2778 509.218,-46.1732 516.215,-46.3742"/>
</g>
<!-- Support&#45;&gt;GitStore -->
<g id="edge25" class="edge"><title>Support&#45;&gt;GitStore</title>
<path fill="none" stroke="black" d="M735.289,-106.224C739.822,-89.8913 746.7,-65.1129 751.968,-46.1343"/>
<polygon fill="black" stroke="black" points="755.402,-46.8497 754.704,-36.2778 748.657,-44.9774 755.402,-46.8497"/>
</g>
<!-- Support&#45;&gt;Tidelift -->
<g id="edge26" class="edge"><title>Support&#45;&gt;Tidelift</title>
<path fill="none" stroke="black" d="M748.197,-108.408C756.76,-101.471 767.36,-93.3829 777.5,-87 809.175,-67.061 847.481,-48.3498 875.356,-35.6224"/>
<polygon fill="black" stroke="black" points="877.081,-38.6841 884.753,-31.378 874.199,-32.3047 877.081,-38.6841"/>
</g>
<!-- Distribution&#45;&gt;GitStore -->
<g id="edge28" class="edge"><title>Distribution&#45;&gt;GitStore</title>
<path fill="none" stroke="black" d="M641.31,-107.835C664.408,-90.4738 701.927,-62.2737 728.489,-42.3085"/>
<polygon fill="black" stroke="black" points="730.806,-44.946 736.697,-36.1398 726.6,-39.3503 730.806,-44.946"/>
</g>
<!-- Distribution&#45;&gt;ItchIO -->
<g id="edge29" class="edge"><title>Distribution&#45;&gt;ItchIO</title>
<path fill="none" stroke="black" d="M618.023,-106.224C615.689,-89.9669 612.153,-65.3422 609.434,-46.3983"/>
<polygon fill="black" stroke="black" points="612.866,-45.6789 607.981,-36.2778 605.937,-46.6738 612.866,-45.6789"/>
</g>
</g>
</svg>
